<svg id="Layer_1" data-name="Layer 1" xmlns="http://www.w3.org/2000/svg" viewBox="0 0 1177.41 164.33"><defs><style>.cls-1{fill:#ee7e38;}.cls-2{fill:#fff;}</style></defs><path class="cls-1" d="M263.67,133.66l83.4-48.1L273.35,10.82l-5.07,34.91L147.72,28.22c-10.09-1.46-17.11,3.37-18.6,13.69s4.08,17,13.94,18.4L218,71.2c35.07,5.09,51.6,23.4,46.78,56.64C264.5,129.83,264.12,131.77,263.67,133.66Z"/><path class="cls-1" d="M83,116l125.84,18.27c12.84,1.86,21.13-3.72,22.67-14.26,1.63-11.24-4.78-18.72-17.61-20.58l-75.41-11C109,84.16,92.05,65.38,91.93,41.12c-.36-1.22-.69-2.46-1-3.76L16.16,88.91,78,150.68Z"/><path class="cls-2" d="M400.36,105.08V95.65h33.2c3.39,0,5.33-1.76,5.33-4.54,0-3-1.94-4.66-5.33-4.66h-19.9c-8.64,0-14-5.2-14-12.64,0-7.26,5-12.7,14.09-12.7H445.6v9.44H413.78c-2.66,0-4.29,1.51-4.29,4.23A3.92,3.92,0,0,0,413.78,79h19.78c9.26,0,14.22,4.12,14.22,12.89,0,7.56-4.66,13.18-14.22,13.18Z"/><path class="cls-2" d="M453.77,105.2V61.11h9.44V105.2Zm34.36,0V86.82H468.65V78.71h19.48V61.11h9.43V105.2Z"/><path class="cls-2" d="M505,105.08v-44h9.43v44Z"/><path class="cls-2" d="M536.76,93.23V84.09h16.4c4.59,0,7.31-2.72,7.31-6.77s-2.72-6.77-7.31-6.77h-21.9v34.53h-9.38v-44h31.28c10.4,0,16.51,6.17,16.51,15.91s-6.11,16.21-16.51,16.21Z"/><path class="cls-2" d="M625.68,105.08l-7.19-27.76-11.74,24.86c-1.09,2.24-2.48,3.51-4.78,3.51s-3.75-1.27-4.77-3.51L585.52,77.32l-7.14,27.76h-9.25l10.77-40.7c.66-2.54,2.17-3.81,4.59-3.81a5.27,5.27,0,0,1,4.72,3.14l13.07,27.95,13.06-27.95a4.83,4.83,0,0,1,4.48-3.14c2.3,0,3.81,1.27,4.47,3.81L635,105.08Z"/><path class="cls-2" d="M639.48,105.08v-44H679.4v9.44H648.86v25.1h30.6v9.43Zm14.88-18.63V79h23.35v7.44Z"/><path class="cls-2" d="M694.23,75.81v29.27h-9V66.13c0-3.45,1.82-5.56,4.72-5.56a5.16,5.16,0,0,1,3.81,1.75L722.59,90V60.69h9v39.37c0,3.51-1.94,5.63-4.72,5.63a5.18,5.18,0,0,1-3.87-1.82Z"/><path class="cls-2" d="M752,105.08V70.55H735.85V61.11h41.73v9.44H761.43v34.53Z"/><path class="cls-1" d="M813.7,105.08V70.55H797.55V61.11h41.73v9.44H823.13v34.53Z"/><path class="cls-2" d="M883,105.08l-10.71-12H858.64v-8H875.7c4.6,0,7.14-2.72,7.14-7.38s-2.67-7.13-7.14-7.13H853.14v34.53h-9.38v-44H875.7c10.28,0,16.39,6.35,16.39,16.33,0,7.2-3.39,12.22-8.89,14.4l13.18,13.24Z"/><path class="cls-2" d="M944.54,105.08l-6.17-10.4H919.8l4.29-7.32H934l-8-13.55-18.45,31.27H896.81l25-41.55c1.09-1.82,2.48-3,4.54-3s3.45,1.21,4.54,3l25,41.55Z"/><path class="cls-2" d="M974.42,105.08c-12.52,0-21.71-9.67-21.71-22.44,0-12.94,9.19-21.53,21.71-21.53h24.26v9.44H974.42c-7.07,0-12.28,5.26-12.28,12.58s5.14,12.52,12.28,12.52h24.26v9.43Z"/><path class="cls-2" d="M1004.31,105.08v-44h9.43v44Zm35.44,0-21.59-18.63a4.54,4.54,0,0,1-1.94-3.87c0-1.57.55-2.78,2.36-4.29l20.32-17.18H1053l-26.13,21.53,27,22.44Z"/><path class="cls-2" d="M1058.2,105.08v-44h39.92v9.44h-30.54v25.1h30.61v9.43Zm14.88-18.63V79h23.35v7.44Z"/><path class="cls-2" d="M1143.43,105.08l-10.7-12h-13.67v-8h17c4.6,0,7.14-2.72,7.14-7.38s-2.66-7.13-7.14-7.13h-22.56v34.53h-9.37v-44h31.93c10.29,0,16.4,6.35,16.4,16.33,0,7.2-3.39,12.22-8.89,14.4l13.18,13.24Z"/></svg>