<svg id="Layer_1" data-name="Layer 1" xmlns="http://www.w3.org/2000/svg" viewBox="0 0 80 80"><defs><style>.cls-1{fill:#ee7e38;fill-rule:evenodd;}</style></defs><path class="cls-1" d="M60.32,3.42H19a9,9,0,0,0-9,9V66.63a9,9,0,0,0,9,9H60.32a9,9,0,0,0,9-9V12.45a9,9,0,0,0-9-9Zm3.87,63.21a3.86,3.86,0,0,1-3.87,3.87H19a3.88,3.88,0,0,1-3.87-3.87V12.45A3.88,3.88,0,0,1,19,8.58H60.32a3.86,3.86,0,0,1,3.87,3.87ZM56.45,13.74H22.91a2.58,2.58,0,0,0-1.82.75,2.57,2.57,0,0,0,0,3.65,2.55,2.55,0,0,0,1.82.76H56.45A2.58,2.58,0,0,0,59,16.32a2.56,2.56,0,0,0-2.58-2.58ZM22.91,34.38H56.45a2.58,2.58,0,0,1,1.83,4.4,2.57,2.57,0,0,1-1.83.76H22.91a2.55,2.55,0,0,1-1.82-.76,2.58,2.58,0,0,1,1.82-4.4ZM37.1,44.7H22.91a2.58,2.58,0,0,0-1.82.75,2.57,2.57,0,0,0,0,3.65,2.55,2.55,0,0,0,1.82.76H37.1a2.58,2.58,0,0,0,2.58-2.58A2.56,2.56,0,0,0,37.1,44.7ZM22.91,24.06H56.45a2.58,2.58,0,0,1,1.83,4.4,2.57,2.57,0,0,1-1.83.76H22.91a2.55,2.55,0,0,1-1.82-.76,2.58,2.58,0,0,1,1.82-4.4Z"/></svg>