<svg id="Layer_1" data-name="Layer 1" xmlns="http://www.w3.org/2000/svg" viewBox="0 0 72.46 72.85"><defs><style>.cls-1{fill:#ee7e38;}</style></defs><path class="cls-1" d="M11.49,44.78h17a5.59,5.59,0,0,0,5.58-5.59V6.49A5.58,5.58,0,0,0,28.48.91h-17A5.59,5.59,0,0,0,5.91,6.49v32.7A5.6,5.6,0,0,0,11.49,44.78ZM10.91,6.49a.58.58,0,0,1,.58-.58h17a.58.58,0,0,1,.58.58v32.7a.58.58,0,0,1-.58.59h-17a.58.58,0,0,1-.58-.59Z"/><path class="cls-1" d="M28.84,47.25H11.49a5.6,5.6,0,0,0-5.58,5.58V67.27a5.59,5.59,0,0,0,5.58,5.58H28.84a5.59,5.59,0,0,0,5.59-5.58V52.83A5.6,5.6,0,0,0,28.84,47.25Zm.59,20a.58.58,0,0,1-.59.58H11.49a.58.58,0,0,1-.58-.58V52.83a.58.58,0,0,1,.58-.58H28.84a.58.58,0,0,1,.59.58Z"/><path class="cls-1" d="M59.82,28.37H42.47A5.59,5.59,0,0,0,36.89,34V67.27a5.58,5.58,0,0,0,5.58,5.58H59.82a5.58,5.58,0,0,0,5.58-5.58V34A5.59,5.59,0,0,0,59.82,28.37Zm.58,38.9a.58.58,0,0,1-.58.58H42.47a.58.58,0,0,1-.58-.58V34a.58.58,0,0,1,.58-.58H59.82a.58.58,0,0,1,.58.58Z"/><path class="cls-1" d="M59.82.91H42.47a5.58,5.58,0,0,0-5.58,5.58V20.07a5.58,5.58,0,0,0,5.58,5.58H59.82a5.58,5.58,0,0,0,5.58-5.58V6.49A5.58,5.58,0,0,0,59.82.91Zm.58,19.16a.58.58,0,0,1-.58.58H42.47a.58.58,0,0,1-.58-.58V6.49a.58.58,0,0,1,.58-.58H59.82a.58.58,0,0,1,.58.58Z"/></svg>