<svg id="Layer_1" data-name="Layer 1" xmlns="http://www.w3.org/2000/svg" viewBox="0 0 72.46 72.85"><defs><style>.cls-1{fill:#fff;}.cls-2{fill:#ee7e38;}</style></defs><circle class="cls-1" cx="36.23" cy="36.05" r="34.86"/><path class="cls-2" d="M44.21,43.15a2.32,2.32,0,0,1-1-.15,6,6,0,0,0,.87-1c1.74-2.4,2.87-6.51,3.44-12.57.47-4.89-.32-8.4-2.43-10.72-2.68-3-6.58-3-8.91-3s-6.22,0-8.89,2.94c-2.11,2.32-2.91,5.83-2.45,10.72.46,5.12,1.36,8.86,2.73,11.41a2,2,0,0,0,.12.67,2.27,2.27,0,0,1,.08,1.37s-.3.2-1,.2h-.08c-6.39,0-9.62,7.23-9.75,7.54A2.09,2.09,0,0,0,18,53.41a2.07,2.07,0,0,0,.84.17,2.1,2.1,0,0,0,1.92-1.24c0-.05,2.26-5,5.93-5h0a5.08,5.08,0,0,0,4.49-2,4.39,4.39,0,0,0,.46-.85,5.61,5.61,0,0,0,2,.3h5.11a6.79,6.79,0,0,0,1.42-.16,1.76,1.76,0,0,0,.14.23,4.27,4.27,0,0,0,3.79,1.68h0c3.32,0,5.21,4.35,5.23,4.41a1.69,1.69,0,0,0,1.55,1,1.63,1.63,0,0,0,.64-.13,1.67,1.67,0,0,0,.91-2.19C52.42,49.36,49.77,43.15,44.21,43.15Zm-5.45-2.59H33.69a2.3,2.3,0,0,1-1.11-.26,2.44,2.44,0,0,1-.85-.69c-.9-1.27-2.09-4.11-2.67-10.53-.34-3.6.12-6.13,1.38-7.51C31.86,20,34.29,20,36.23,20s4.38,0,5.81,1.57c1.25,1.38,1.71,3.91,1.37,7.51-.62,6.5-1.79,9.31-2.66,10.5v0a1.65,1.65,0,0,0-.53.49,1.9,1.9,0,0,1-.33.22A2.59,2.59,0,0,1,38.76,40.56Z"/><path class="cls-2" d="M36.23,5.71A30.35,30.35,0,1,0,66.57,36.05,30.37,30.37,0,0,0,36.23,5.71Zm0,56.5A26.16,26.16,0,1,1,62.39,36.05,26.18,26.18,0,0,1,36.23,62.21Z"/></svg>