<svg width="102" height="40" viewBox="0 0 102 40" fill="none" xmlns="http://www.w3.org/2000/svg">
<path d="M49.8785 29C49.5872 29 49.4032 28.8582 49.3265 28.5745L49.1425 27.16C48.6442 27.7657 48.073 28.2525 47.429 28.6205C46.7927 28.9808 46.0605 29.161 45.2325 29.161C44.5655 29.161 43.9598 29.0345 43.4155 28.7815C42.8712 28.5208 42.4073 28.1413 42.024 27.643C41.6407 27.1447 41.3455 26.5237 41.1385 25.78C40.9315 25.0363 40.828 24.1815 40.828 23.2155C40.828 22.3568 40.943 21.5595 41.173 20.8235C41.403 20.0798 41.7327 19.4358 42.162 18.8915C42.599 18.3472 43.128 17.9217 43.749 17.615C44.37 17.3007 45.0753 17.1435 45.865 17.1435C46.578 17.1435 47.1875 17.2662 47.6935 17.5115C48.1995 17.7492 48.6518 18.0865 49.0505 18.5235V12.0605H51.0975V29H49.8785ZM45.911 27.505C46.578 27.505 47.1607 27.3517 47.659 27.045C48.165 26.7383 48.6288 26.3052 49.0505 25.7455V20.1105C48.6748 19.6045 48.2608 19.2518 47.8085 19.0525C47.3638 18.8455 46.8693 18.742 46.325 18.742C45.2363 18.742 44.4007 19.1292 43.818 19.9035C43.2353 20.6778 42.944 21.7818 42.944 23.2155C42.944 23.9745 43.0092 24.6262 43.1395 25.1705C43.2698 25.7072 43.4615 26.1518 43.7145 26.5045C43.9675 26.8495 44.278 27.1025 44.646 27.2635C45.014 27.4245 45.4357 27.505 45.911 27.505ZM63.0827 29H62.1742C61.9748 29 61.8138 28.9693 61.6912 28.908C61.5685 28.8467 61.488 28.7163 61.4497 28.517L61.2197 27.436C60.913 27.712 60.614 27.9612 60.3227 28.1835C60.0313 28.3982 59.7247 28.5822 59.4027 28.7355C59.0807 28.8812 58.7357 28.9923 58.3677 29.069C58.0073 29.1457 57.6048 29.184 57.1602 29.184C56.7078 29.184 56.2823 29.1227 55.8837 29C55.4927 28.8697 55.1515 28.678 54.8602 28.425C54.5688 28.172 54.335 27.8538 54.1587 27.4705C53.99 27.0795 53.9057 26.6195 53.9057 26.0905C53.9057 25.6305 54.0322 25.1897 54.2852 24.768C54.5382 24.3387 54.9445 23.9592 55.5042 23.6295C56.0715 23.2998 56.8113 23.0315 57.7237 22.8245C58.636 22.6098 59.7515 22.4872 61.0702 22.4565V21.548C61.0702 20.6433 60.8747 19.961 60.4837 19.501C60.1003 19.0333 59.5292 18.7995 58.7702 18.7995C58.2718 18.7995 57.8502 18.8647 57.5052 18.995C57.1678 19.1177 56.8727 19.2595 56.6197 19.4205C56.3743 19.5738 56.1597 19.7157 55.9757 19.846C55.7993 19.9687 55.623 20.03 55.4467 20.03C55.3087 20.03 55.186 19.9955 55.0787 19.9265C54.979 19.8498 54.8985 19.7578 54.8372 19.6505L54.4692 18.995C55.1132 18.374 55.807 17.9102 56.5507 17.6035C57.2943 17.2968 58.1185 17.1435 59.0232 17.1435C59.6748 17.1435 60.2537 17.2508 60.7597 17.4655C61.2657 17.6802 61.6912 17.9792 62.0362 18.3625C62.3812 18.7458 62.6418 19.2097 62.8182 19.754C62.9945 20.2983 63.0827 20.8963 63.0827 21.548V29ZM57.7697 27.7465C58.13 27.7465 58.4597 27.712 58.7587 27.643C59.0577 27.5663 59.3375 27.4628 59.5982 27.3325C59.8665 27.1945 60.1195 27.0297 60.3572 26.838C60.6025 26.6463 60.8402 26.4278 61.0702 26.1825V23.756C60.1272 23.7867 59.326 23.8633 58.6667 23.986C58.0073 24.101 57.4707 24.2543 57.0567 24.446C56.6427 24.6377 56.3398 24.8638 56.1482 25.1245C55.9642 25.3852 55.8722 25.6765 55.8722 25.9985C55.8722 26.3052 55.922 26.5697 56.0217 26.792C56.1213 27.0143 56.2555 27.1983 56.4242 27.344C56.5928 27.482 56.7922 27.5855 57.0222 27.6545C57.2522 27.7158 57.5013 27.7465 57.7697 27.7465ZM74.3834 29C74.092 29 73.908 28.8582 73.8314 28.5745L73.6474 27.16C73.149 27.7657 72.5779 28.2525 71.9339 28.6205C71.2975 28.9808 70.5654 29.161 69.7374 29.161C69.0704 29.161 68.4647 29.0345 67.9204 28.7815C67.376 28.5208 66.9122 28.1413 66.5289 27.643C66.1455 27.1447 65.8504 26.5237 65.6434 25.78C65.4364 25.0363 65.3329 24.1815 65.3329 23.2155C65.3329 22.3568 65.4479 21.5595 65.6779 20.8235C65.9079 20.0798 66.2375 19.4358 66.6669 18.8915C67.1039 18.3472 67.6329 17.9217 68.2539 17.615C68.8749 17.3007 69.5802 17.1435 70.3699 17.1435C71.0829 17.1435 71.6924 17.2662 72.1984 17.5115C72.7044 17.7492 73.1567 18.0865 73.5554 18.5235V12.0605H75.6024V29H74.3834ZM70.4159 27.505C71.0829 27.505 71.6655 27.3517 72.1639 27.045C72.6699 26.7383 73.1337 26.3052 73.5554 25.7455V20.1105C73.1797 19.6045 72.7657 19.2518 72.3134 19.0525C71.8687 18.8455 71.3742 18.742 70.8299 18.742C69.7412 18.742 68.9055 19.1292 68.3229 19.9035C67.7402 20.6778 67.4489 21.7818 67.4489 23.2155C67.4489 23.9745 67.514 24.6262 67.6444 25.1705C67.7747 25.7072 67.9664 26.1518 68.2194 26.5045C68.4724 26.8495 68.7829 27.1025 69.1509 27.2635C69.5189 27.4245 69.9405 27.505 70.4159 27.505ZM87.231 29C86.9397 29 86.7557 28.8582 86.679 28.5745L86.495 27.16C85.9967 27.7657 85.4255 28.2525 84.7815 28.6205C84.1452 28.9808 83.413 29.161 82.585 29.161C81.918 29.161 81.3124 29.0345 80.768 28.7815C80.2237 28.5208 79.7599 28.1413 79.3765 27.643C78.9932 27.1447 78.698 26.5237 78.491 25.78C78.284 25.0363 78.1805 24.1815 78.1805 23.2155C78.1805 22.3568 78.2955 21.5595 78.5255 20.8235C78.7555 20.0798 79.0852 19.4358 79.5145 18.8915C79.9515 18.3472 80.4805 17.9217 81.1015 17.615C81.7225 17.3007 82.4279 17.1435 83.2175 17.1435C83.9305 17.1435 84.54 17.2662 85.046 17.5115C85.552 17.7492 86.0044 18.0865 86.403 18.5235V12.0605H88.45V29H87.231ZM83.2635 27.505C83.9305 27.505 84.5132 27.3517 85.0115 27.045C85.5175 26.7383 85.9814 26.3052 86.403 25.7455V20.1105C86.0274 19.6045 85.6134 19.2518 85.161 19.0525C84.7164 18.8455 84.2219 18.742 83.6775 18.742C82.5889 18.742 81.7532 19.1292 81.1705 19.9035C80.5879 20.6778 80.2965 21.7818 80.2965 23.2155C80.2965 23.9745 80.3617 24.6262 80.492 25.1705C80.6224 25.7072 80.814 26.1518 81.067 26.5045C81.32 26.8495 81.6305 27.1025 81.9985 27.2635C82.3665 27.4245 82.7882 27.505 83.2635 27.505ZM95.2947 32.4385C95.2257 32.5918 95.1375 32.7145 95.0302 32.8065C94.9305 32.8985 94.7734 32.9445 94.5587 32.9445H93.0407L95.1682 28.3215L90.3612 17.3505H92.1322C92.3085 17.3505 92.4465 17.3965 92.5462 17.4885C92.6459 17.5728 92.7187 17.6687 92.7647 17.776L95.8812 25.113C95.9502 25.2817 96.0077 25.4503 96.0537 25.619C96.1074 25.7877 96.1534 25.9602 96.1917 26.1365C96.2454 25.9602 96.299 25.7877 96.3527 25.619C96.4064 25.4503 96.4677 25.2778 96.5367 25.1015L99.5612 17.776C99.6072 17.6533 99.6839 17.5537 99.7912 17.477C99.9062 17.3927 100.029 17.3505 100.159 17.3505H101.792L95.2947 32.4385Z" fill="#333333"/>
<g clip-path="url(#clip0_139_48)">
<path d="M25.0021 28.2911C24.9844 28.3495 24.9667 28.4092 24.9463 28.4664C24.7044 29.1661 24.355 29.7592 23.897 30.2456C23.4389 30.732 22.8775 31.1041 22.2155 31.3645C21.5536 31.6248 20.8005 31.7544 19.9591 31.7544C19.1177 31.7544 18.3647 31.6248 17.7027 31.3645C17.0408 31.1041 16.4808 30.7282 16.0227 30.2367C15.5646 29.7453 15.2139 29.1496 14.9733 28.4499C14.7314 27.7501 14.6117 26.9551 14.6117 26.0636V11.1069H8.33325V26.0813C8.33325 27.632 8.59967 29.0544 9.13251 30.3498C9.66534 31.6452 10.432 32.7615 11.4365 33.6987C12.4396 34.636 13.6575 35.3649 15.0943 35.8844C16.5297 36.4051 18.1527 36.6654 19.9605 36.6654C21.7683 36.6654 23.3709 36.4051 24.8077 35.8844C26.2431 35.3637 27.4637 34.6347 28.4655 33.6987C29.4686 32.7615 30.2393 31.6452 30.7776 30.3498C30.7831 30.3371 30.7871 30.3244 30.7926 30.3129L25.0021 28.2911Z" fill="#0F3CC9"/>
<path d="M31.585 26.0813V11.1069H25.3079V26.0813" fill="#E30513"/>
<path d="M31.6665 6.47656C31.6665 6.90328 31.5741 7.30332 31.3892 7.6767C31.2043 8.05134 30.9515 8.379 30.6307 8.66094C30.3099 8.94287 29.9375 9.16766 29.512 9.33403C29.0866 9.50167 28.6339 9.58422 28.1528 9.58422C27.6716 9.58422 27.2475 9.5004 26.8397 9.33403C26.4333 9.16766 26.0731 8.94287 25.7577 8.66094C25.4437 8.379 25.1963 8.05134 25.0183 7.6767C24.8388 7.30205 24.7505 6.90201 24.7505 6.47656C24.7505 6.05111 24.8402 5.63075 25.0183 5.24975C25.1963 4.87003 25.4437 4.53602 25.7577 4.24773C26.0717 3.95945 26.4319 3.73593 26.8397 3.57464C27.2461 3.41335 27.6838 3.33334 28.1528 3.33334C28.6217 3.33334 29.0866 3.41462 29.512 3.57464C29.9375 3.73593 30.3099 3.96072 30.6307 4.24773C30.9515 4.53602 31.2043 4.87003 31.3892 5.24975C31.5741 5.62948 31.6665 6.03841 31.6665 6.47656Z" fill="#E30513"/>
</g>
<defs>
<clipPath id="clip0_139_48">
<rect width="23.3333" height="33.3333" fill="white" transform="translate(8.33325 3.33334)"/>
</clipPath>
</defs>
</svg>
